PublicHD - High-Definition Bittorrent Community 
  https://publichd.eu 

 ----------------------------------------- 


Credits To Original UPloader.

Sharing Is Caring 





Revenge - Season 02, Episode 09 
WEB-DL - KiNGS Release 
December 3, 2012

Quote: Format : Matroska
Format version : Version 2
File size : 1.68 GiB
Duration : 43mn 18s
Overall bit rate : 5 557 Kbps
Encoded date : UTC 2012-12-03 09:06:06
Writing application : mkvmerge v5.8.0 ('No Sleep / Pillow') built on Sep 2 2012 15:37:04
Writing library : libebml v1.2.3 + libmatroska v1.3.0

Video
ID : 1
Format : AVC
Format/Info : Advanced Video Codec
Format profile : High@L4.0
Format settings, CABAC : Yes
Format settings, ReFrames : 4 frames
Codec ID : V_MPEG4/ISO/AVC
Duration : 43mn 18s
Bit rate : 5 062 Kbps
Width : 1 920 pixels
Height : 1 080 pixels
Display aspect ratio : 16:9
Frame rate mode : Constant
Frame rate : 23.976 fps
Color space : YUV
Chroma subsampling : 4:2:0
Bit depth : 8 bits
Scan type : Progressive
Bits/(Pixel*Frame) : 0.102
Stream size : 1.53 GiB (91%)
Language : English
Default : Yes
Forced : No
Color primaries : BT.709
Transfer characteristics : BT.709
Matrix coefficients : BT.709

Audio
ID : 2
Format : AC-3
Format/Info : Audio Coding 3
Mode extension : CM (complete main)
Format settings, Endianness : Big
Codec ID : A_AC3
Duration : 43mn 18s
Bit rate mode : Constant
Bit rate : 384 Kbps
Channel(s) : 6 channels
Channel positions : Front: L C R, Side: L R, LFE
Sampling rate : 48.0 KHz
Bit depth : 16 bits
Compression mode : Lossy
Stream size : 119 MiB (7%)
Language : English
Default : Yes
Forced : No

Text
ID : 3
Format : UTF-8
Codec ID : S_TEXT/UTF8
Codec ID/Info : UTF-8 Plain Text
Default : Yes
Forced : No